<svg width="219" height="219" viewBox="0 0 219 219" fill="none" xmlns="http://www.w3.org/2000/svg">
<g filter="url(#filter0_d_293_317)">
<path d="M183.824 54.2743C175.777 46.2276 166.224 39.8447 155.711 35.4898C145.197 31.135 133.929 28.8936 122.549 28.8936C111.169 28.8936 99.901 31.135 89.3875 35.4898C78.874 39.8447 69.3212 46.2276 61.2745 54.2743C53.2278 62.321 46.8448 71.8738 42.49 82.3873C38.1352 92.9008 35.8938 104.169 35.8938 115.549C35.8938 126.929 38.1352 138.197 42.49 148.71C46.8449 159.224 53.2278 168.777 61.2745 176.823L122.549 115.549L183.824 54.2743Z" fill="url(#paint0_linear_293_317)"/>
</g>
<defs>
<filter id="filter0_d_293_317" x="0.893555" y="0.893555" width="217.93" height="217.93" filterUnits="userSpaceOnUse" color-interpolation-filters="sRGB">
<feFlood flood-opacity="0" result="BackgroundImageFix"/>
<feColorMatrix in="SourceAlpha" type="matrix" values="0 0 0 0 0 0 0 0 0 0 0 0 0 0 0 0 0 0 127 0" result="hardAlpha"/>
<feMorphology radius="5" operator="dilate" in="SourceAlpha" result="effect1_dropShadow_293_317"/>
<feOffset dy="7"/>
<feGaussianBlur stdDeviation="15"/>
<feComposite in2="hardAlpha" operator="out"/>
<feColorMatrix type="matrix" values="0 0 0 0 1 0 0 0 0 0.4257 0 0 0 0 0.563532 0 0 0 0.6 0"/>
<feBlend mode="normal" in2="BackgroundImageFix" result="effect1_dropShadow_293_317"/>
<feBlend mode="normal" in="SourceGraphic" in2="effect1_dropShadow_293_317" result="shape"/>
</filter>
<linearGradient id="paint0_linear_293_317" x1="194.324" y1="190.927" x2="-1.10663" y2="18.2466" gradientUnits="userSpaceOnUse">
<stop stop-color="#8934ED"/>
<stop offset="1" stop-color="#FF6D90"/>
</linearGradient>
</defs>
</svg>
