<svg width="142" height="165" viewBox="0 0 142 165" fill="none" xmlns="http://www.w3.org/2000/svg">
<g filter="url(#filter0_d_293_318)">
<path fill-rule="evenodd" clip-rule="evenodd" d="M94.2887 25.8486C102.231 26.8942 109.889 29.4939 116.827 33.4992L106.048 52.1683C101.564 49.5804 96.6144 47.9007 91.4816 47.225C86.3466 46.5489 81.1287 46.8909 76.1259 48.2314C71.1231 49.5719 66.4333 51.8847 62.3243 55.0376C58.2153 58.1906 54.7675 62.122 52.1779 66.6074C49.5882 71.0928 47.9074 76.0443 47.2314 81.1793C46.5553 86.3143 46.8973 91.5322 48.2378 96.535C49.5783 101.538 51.8911 106.228 55.044 110.337C58.1957 114.444 62.1252 117.891 66.6083 120.48L55.8266 139.154C48.8892 135.149 42.8086 129.816 37.932 123.461C33.0555 117.106 29.4784 109.852 27.4051 102.115C25.3318 94.377 24.8028 86.3068 25.8484 78.3647C26.894 70.4226 29.4937 62.7642 33.499 55.8268C37.5043 48.8893 42.8369 42.8088 49.1921 37.9322C55.5474 33.0556 62.8009 29.4786 70.5386 27.4053C78.2763 25.332 86.3466 24.803 94.2887 25.8486Z" fill="url(#paint0_linear_293_318)"/>
</g>
<defs>
<filter id="filter0_d_293_318" x="0.326172" y="0.327148" width="141.5" height="163.827" filterUnits="userSpaceOnUse" color-interpolation-filters="sRGB">
<feFlood flood-opacity="0" result="BackgroundImageFix"/>
<feColorMatrix in="SourceAlpha" type="matrix" values="0 0 0 0 0 0 0 0 0 0 0 0 0 0 0 0 0 0 127 0" result="hardAlpha"/>
<feOffset/>
<feGaussianBlur stdDeviation="12.5"/>
<feComposite in2="hardAlpha" operator="out"/>
<feColorMatrix type="matrix" values="0 0 0 0 0.88514 0 0 0 0 0.4257 0 0 0 0 1 0 0 0 0.6 0"/>
<feBlend mode="normal" in2="BackgroundImageFix" result="effect1_dropShadow_293_318"/>
<feBlend mode="normal" in="SourceGraphic" in2="effect1_dropShadow_293_318" result="shape"/>
</filter>
<linearGradient id="paint0_linear_293_318" x1="90.733" y1="90.9419" x2="-33.4137" y2="19.9712" gradientUnits="userSpaceOnUse">
<stop stop-color="#8934ED"/>
<stop offset="1" stop-color="#FF6D90"/>
</linearGradient>
</defs>
</svg>
