<svg width="180" height="158" viewBox="0 0 180 158" fill="none" xmlns="http://www.w3.org/2000/svg">
<g filter="url(#filter0_d_275_261)">
<path fill-rule="evenodd" clip-rule="evenodd" d="M146.509 103.218C145.31 111.273 142.535 119.013 138.345 125.996L119.552 114.717C122.26 110.203 124.053 105.2 124.829 99.9932C125.604 94.7853 125.346 89.4757 124.07 84.3674C122.794 79.2592 120.524 74.4523 117.389 70.2214C114.255 65.9904 110.319 62.4182 105.804 59.7087C101.289 56.9992 96.2851 55.2055 91.0772 54.4299C85.8693 53.6543 80.5597 53.9121 75.4514 55.1885C70.3432 56.465 65.5363 58.7351 61.3054 61.8692C57.0754 65.0026 53.5039 68.9382 50.7946 73.4516L32.0004 62.1721C36.1911 55.1895 41.7161 49.1006 48.26 44.2532C54.8038 39.4057 62.2384 35.8947 70.1391 33.9205C78.0399 31.9463 86.2521 31.5475 94.307 32.7471C102.362 33.9467 110.102 36.721 117.084 40.9117C124.067 45.1024 130.156 50.6274 135.003 57.1713C139.851 63.7151 143.362 71.1497 145.336 79.0504C147.31 86.9512 147.709 95.1634 146.509 103.218Z" fill="url(#paint0_linear_275_261)"/>
</g>
<defs>
<filter id="filter0_d_275_261" x="0" y="0.0708008" width="179.186" height="157.925" filterUnits="userSpaceOnUse" color-interpolation-filters="sRGB">
<feFlood flood-opacity="0" result="BackgroundImageFix"/>
<feColorMatrix in="SourceAlpha" type="matrix" values="0 0 0 0 0 0 0 0 0 0 0 0 0 0 0 0 0 0 127 0" result="hardAlpha"/>
<feMorphology radius="5" operator="dilate" in="SourceAlpha" result="effect1_dropShadow_275_261"/>
<feOffset/>
<feGaussianBlur stdDeviation="13.5"/>
<feComposite in2="hardAlpha" operator="out"/>
<feColorMatrix type="matrix" values="0 0 0 0 0.929412 0 0 0 0 0.921569 0 0 0 0 0.0666667 0 0 0 0.45 0"/>
<feBlend mode="normal" in2="BackgroundImageFix" result="effect1_dropShadow_275_261"/>
<feBlend mode="normal" in="SourceGraphic" in2="effect1_dropShadow_275_261" result="shape"/>
</filter>
<linearGradient id="paint0_linear_275_261" x1="97.9632" y1="69.2284" x2="135.235" y2="6.82311" gradientUnits="userSpaceOnUse">
<stop stop-color="#EDA540"/>
<stop offset="1" stop-color="#EDEB11"/>
</linearGradient>
</defs>
</svg>
