<svg width="344" height="333" viewBox="0 0 344 333" fill="none" xmlns="http://www.w3.org/2000/svg">
<path d="M0.421625 96.7162V0H48.1138C58.8963 0 68.3887 1.98038 76.5908 5.94114C84.7929 9.80979 91.198 15.3364 95.8059 22.5211C100.414 29.7057 102.718 38.272 102.718 48.2199C102.718 58.26 100.414 66.9184 95.8059 74.1951C91.198 81.3798 84.7929 86.9525 76.5908 90.9132C68.3887 94.7819 58.8963 96.7162 48.1138 96.7162H0.421625ZM33.0458 71.2936H46.7314C51.3393 71.2936 55.3482 70.4186 58.7581 68.6685C62.2601 66.9184 64.9788 64.3393 66.9141 60.9312C68.8495 57.431 69.8171 53.1939 69.8171 48.2199C69.8171 43.3381 68.8495 39.1931 66.9141 35.785C64.9788 32.3769 62.2601 29.7978 58.7581 28.0477C55.3482 26.2976 51.3393 25.4225 46.7314 25.4225H33.0458V71.2936Z" fill="#FF6D90"/>
<path d="M158.08 35.9231H201.211V59.4114H158.08V35.9231ZM160.292 72.1226H208.675V96.7162H128.221V0H206.878V24.5935H160.292V72.1226Z" fill="#FF6D90"/>
<path d="M271.01 96.7162L230.092 0H265.204L298.52 81.6561H277.646L311.929 0H344L303.082 96.7162H271.01Z" fill="#FF6D90"/>
<path d="M29.8594 154.065H72.9897V177.553H29.8594V154.065ZM32.0712 190.265H80.4546V214.858H0V118.142H78.6575V142.735H32.0712V190.265Z" fill="#FF6D90"/>
<path d="M128.061 214.858V118.142H160.686V189.574H204.369V214.858H128.061Z" fill="#FF6D90"/>
<path d="M287.079 217.069C279.245 217.069 271.965 215.825 265.237 213.338C258.602 210.851 252.842 207.351 247.957 202.838C243.073 198.232 239.248 192.844 236.484 186.672C233.811 180.501 232.475 173.777 232.475 166.5C232.475 159.131 233.811 152.407 236.484 146.328C239.248 140.156 243.073 134.814 247.957 130.301C252.842 125.695 258.602 122.149 265.237 119.662C271.965 117.175 279.245 115.931 287.079 115.931C295.005 115.931 302.285 117.175 308.92 119.662C315.556 122.149 321.316 125.695 326.2 130.301C331.085 134.814 334.863 140.156 337.536 146.328C340.301 152.407 341.683 159.131 341.683 166.5C341.683 173.777 340.301 180.501 337.536 186.672C334.863 192.844 331.085 198.232 326.2 202.838C321.316 207.351 315.556 210.851 308.92 213.338C302.285 215.825 295.005 217.069 287.079 217.069ZM287.079 190.679C290.12 190.679 292.931 190.126 295.511 189.021C298.184 187.916 300.488 186.35 302.423 184.323C304.451 182.205 306.017 179.672 307.123 176.724C308.229 173.685 308.782 170.277 308.782 166.5C308.782 162.723 308.229 159.361 307.123 156.414C306.017 153.374 304.451 150.841 302.423 148.815C300.488 146.696 298.184 145.084 295.511 143.979C292.931 142.874 290.12 142.321 287.079 142.321C284.038 142.321 281.181 142.874 278.508 143.979C275.928 145.084 273.624 146.696 271.596 148.815C269.661 150.841 268.14 153.374 267.034 156.414C265.928 159.361 265.375 162.723 265.375 166.5C265.375 170.277 265.928 173.685 267.034 176.724C268.14 179.672 269.661 182.205 271.596 184.323C273.624 186.35 275.928 187.916 278.508 189.021C281.181 190.126 284.038 190.679 287.079 190.679Z" fill="#FF6D90"/>
<path d="M0.148694 333V236.284H46.7349C55.7665 236.284 63.5539 237.758 70.0972 240.705C76.7326 243.653 81.8474 247.89 85.4416 253.416C89.0358 258.851 90.8329 265.299 90.8329 272.76C90.8329 280.221 89.0358 286.668 85.4416 292.103C81.8474 297.537 76.7326 301.774 70.0972 304.814C63.5539 307.762 55.7665 309.235 46.7349 309.235H18.2579L32.7729 295.281V333H0.148694ZM32.7729 298.873L18.2579 284.089H44.6613C49.1771 284.089 52.4948 283.076 54.6145 281.05C56.8263 279.023 57.9322 276.26 57.9322 272.76C57.9322 269.259 56.8263 266.496 54.6145 264.47C52.4948 262.443 49.1771 261.43 44.6613 261.43H18.2579L32.7729 246.646V298.873Z" fill="#FF6D90"/>
<path d="M158.08 272.207H201.211V295.695H158.08V272.207ZM160.292 308.406H208.675V333H128.221V236.284H206.878V260.877H160.292V308.406Z" fill="#FF6D90"/>
<path d="M246.438 333V236.284H293.024C302.056 236.284 309.843 237.758 316.387 240.705C323.022 243.653 328.137 247.89 331.731 253.416C335.325 258.851 337.122 265.299 337.122 272.76C337.122 280.221 335.325 286.668 331.731 292.103C328.137 297.445 323.022 301.544 316.387 304.4C309.843 307.255 302.056 308.683 293.024 308.683H264.547L279.062 295.281V333H246.438ZM304.36 333L280.583 297.768H315.142L339.196 333H304.36ZM279.062 298.873L264.547 284.089H290.951C295.467 284.089 298.784 283.076 300.904 281.05C303.116 279.023 304.222 276.26 304.222 272.76C304.222 269.259 303.116 266.496 300.904 264.47C298.784 262.443 295.467 261.43 290.951 261.43H264.547L279.062 246.646V298.873Z" fill="#FF6D90"/>
</svg>
