<svg width="41" height="41" viewBox="0 0 41 41" fill="none" xmlns="http://www.w3.org/2000/svg">
<g clip-path="url(#clip0_117_164)">
<path d="M41 41H0V0H29.9253V9.89655H41V41ZM3.48736 37.5126H37.5126V13.3839H26.4379V3.48736H3.48736V37.5126ZM11.5931 25.3521V15.6479H16.2652C17.171 15.6479 17.9542 15.7958 18.6149 16.0918C19.2757 16.3877 19.7865 16.8109 20.1466 17.3604C20.5075 17.9099 20.6876 18.5593 20.6876 19.3086C20.6876 20.058 20.5075 20.7045 20.1466 21.2493C19.7856 21.795 19.2757 22.2173 18.6149 22.518C17.9542 22.8186 17.171 22.9685 16.2652 22.9685H13.4094L14.8646 21.5679V25.3531H11.5931V25.3521ZM14.8646 21.9279L13.4094 20.4444H16.0569C16.5103 20.4444 16.8449 20.3426 17.0617 20.139C17.2784 19.9354 17.3878 19.6583 17.3878 19.3068C17.3878 18.9552 17.2794 18.6781 17.0617 18.4754C16.8449 18.2719 16.5093 18.1701 16.0569 18.1701H13.4094L14.8646 16.6865V21.927V21.9279ZM21.7545 25.3521V15.6479H25.026V22.8158H29.4069V25.3531H21.7545V25.3521Z" fill="#FF007C"/>
</g>
<defs>
<clipPath id="clip0_117_164">
<rect width="41" height="41" fill="white"/>
</clipPath>
</defs>
</svg>
