<svg width="203" height="40" viewBox="0 0 203 40" fill="none" xmlns="http://www.w3.org/2000/svg">
<path d="M0.917259 39V0.454544H16.8398C19.7257 0.454544 22.2164 1.01918 24.3118 2.14844C26.4197 3.26515 28.0446 4.82729 29.1864 6.83487C30.3282 8.8299 30.8991 11.1512 30.8991 13.7986C30.8991 16.4587 30.3157 18.7862 29.1488 20.7812C27.9944 22.7637 26.3445 24.3008 24.1989 25.3924C22.0533 26.484 19.5062 27.0298 16.5575 27.0298H6.73295V19.6896H14.826C16.2313 19.6896 17.4045 19.445 18.3455 18.9556C19.2991 18.4663 20.0206 17.7824 20.5099 16.9041C20.9993 16.0133 21.244 14.9781 21.244 13.7986C21.244 12.6067 20.9993 11.5778 20.5099 10.712C20.0206 9.83369 19.2991 9.15613 18.3455 8.67933C17.3919 8.20253 16.2188 7.96413 14.826 7.96413H10.2337V39H0.917259ZM42.6058 39.4893C40.7614 39.4893 39.1239 39.1819 37.6935 38.5671C36.2757 37.9397 35.1527 36.9987 34.3246 35.744C33.509 34.4767 33.1012 32.8894 33.1012 30.9822C33.1012 29.3762 33.3835 28.0211 33.9482 26.9169C34.5128 25.8127 35.2907 24.9156 36.282 24.2255C37.2732 23.5354 38.415 23.0147 39.7074 22.6634C40.9998 22.2995 42.38 22.0548 43.848 21.9293C45.4917 21.7788 46.8155 21.6219 47.8192 21.4588C48.823 21.2831 49.5508 21.0385 50.0025 20.7248C50.4667 20.3986 50.6989 19.9406 50.6989 19.3509V19.2567C50.6989 18.2906 50.3664 17.544 49.7013 17.017C49.0363 16.4901 48.1392 16.2266 47.0099 16.2266C45.7929 16.2266 44.8142 16.4901 44.0739 17.017C43.3336 17.544 42.863 18.2718 42.6623 19.2003L34.174 18.8991C34.425 17.1425 35.0711 15.5741 36.1126 14.1939C37.1665 12.8011 38.6095 11.7095 40.4414 10.919C42.2859 10.116 44.5005 9.71449 47.0852 9.71449C48.9297 9.71449 50.6299 9.93407 52.1857 10.3732C53.7416 10.7998 55.0967 11.4272 56.2511 12.2553C57.4054 13.0709 58.2963 14.0747 58.9237 15.2667C59.5636 16.4587 59.8835 17.8201 59.8835 19.3509V39H51.2259V34.9723H51C50.4856 35.951 49.8268 36.7791 49.0238 37.4567C48.2333 38.1342 47.2985 38.6424 46.2195 38.9812C45.1529 39.32 43.9484 39.4893 42.6058 39.4893ZM45.4478 33.4666C46.439 33.4666 47.3299 33.2659 48.1204 32.8643C48.9234 32.4628 49.5633 31.9107 50.0401 31.2081C50.5169 30.4929 50.7553 29.6648 50.7553 28.7237V25.9759C50.4918 26.1139 50.1719 26.2393 49.7955 26.3523C49.4316 26.4652 49.0301 26.5719 48.5909 26.6722C48.1518 26.7726 47.7 26.8604 47.2358 26.9357C46.7715 27.011 46.3261 27.08 45.8995 27.1428C45.0337 27.2808 44.2934 27.4941 43.6786 27.7827C43.0763 28.0713 42.6121 28.4477 42.2859 28.9119C41.9722 29.3636 41.8153 29.9032 41.8153 30.5305C41.8153 31.4841 42.1541 32.2119 42.8317 32.7138C43.5218 33.2157 44.3938 33.4666 45.4478 33.4666ZM81.8288 10.0909V16.8665H63.5913V10.0909H81.8288ZM67.4119 3.16477H76.6154V29.9094C76.6154 30.4741 76.7032 30.9321 76.8789 31.2834C77.0671 31.6222 77.3369 31.8668 77.6882 32.0174C78.0395 32.1554 78.4599 32.2244 78.9492 32.2244C79.3005 32.2244 79.6707 32.1931 80.0597 32.1303C80.4612 32.055 80.7623 31.9923 80.9631 31.9421L82.3558 38.5859C81.9167 38.7114 81.2956 38.8683 80.4925 39.0565C79.7021 39.2447 78.7547 39.3639 77.6506 39.4141C75.4924 39.5144 73.6417 39.2635 72.0984 38.6612C70.5676 38.0464 69.3944 37.0928 68.5788 35.8004C67.7758 34.508 67.3868 32.8832 67.4119 30.9258V3.16477ZM97.9114 39V0.454544H107.228V31.4339H123.263V39H97.9114ZM141.6 39.5458C138.576 39.5458 135.966 38.9498 133.77 37.7578C131.587 36.5533 129.906 34.8406 128.726 32.6197C127.559 30.3862 126.976 27.7325 126.976 24.6584C126.976 21.6721 127.565 19.0623 128.745 16.8288C129.924 14.5829 131.587 12.8388 133.733 11.5966C135.878 10.3419 138.406 9.71449 141.317 9.71449C143.375 9.71449 145.257 10.0344 146.964 10.6744C148.67 11.3143 150.144 12.2616 151.387 13.5163C152.629 14.7711 153.595 16.3207 154.285 18.1651C154.975 19.997 155.32 22.0987 155.32 24.4702V26.7663H130.194V21.4212H146.757C146.744 20.4425 146.512 19.5704 146.06 18.805C145.609 18.0397 144.987 17.4437 144.197 17.017C143.419 16.5779 142.522 16.3583 141.506 16.3583C140.477 16.3583 139.554 16.5904 138.739 17.0547C137.923 17.5064 137.277 18.1275 136.8 18.918C136.324 19.6959 136.073 20.5805 136.047 21.5717V27.011C136.047 28.1905 136.28 29.2256 136.744 30.1165C137.208 30.9948 137.867 31.6786 138.72 32.168C139.573 32.6573 140.59 32.902 141.769 32.902C142.585 32.902 143.325 32.7891 143.99 32.5632C144.655 32.3374 145.226 32.0049 145.703 31.5657C146.179 31.1265 146.537 30.587 146.775 29.9471L155.226 30.1918C154.875 32.0864 154.103 33.7364 152.911 35.1417C151.732 36.5344 150.182 37.6198 148.262 38.3977C146.343 39.1631 144.122 39.5458 141.6 39.5458ZM173.515 39.5458C170.479 39.5458 167.869 38.9247 165.686 37.6825C163.515 36.4278 161.84 34.6837 160.661 32.4503C159.494 30.2043 158.91 27.6007 158.91 24.6396C158.91 21.6658 159.494 19.0623 160.661 16.8288C161.84 14.5829 163.515 12.8388 165.686 11.5966C167.869 10.3419 170.479 9.71449 173.515 9.71449C176.552 9.71449 179.155 10.3419 181.326 11.5966C183.509 12.8388 185.184 14.5829 186.351 16.8288C187.531 19.0623 188.121 21.6658 188.121 24.6396C188.121 27.6007 187.531 30.2043 186.351 32.4503C185.184 34.6837 183.509 36.4278 181.326 37.6825C179.155 38.9247 176.552 39.5458 173.515 39.5458ZM173.572 32.6009C174.676 32.6009 175.611 32.2621 176.376 31.5845C177.142 30.907 177.725 29.9659 178.127 28.7614C178.541 27.5568 178.748 26.1641 178.748 24.5831C178.748 22.977 178.541 21.5717 178.127 20.3672C177.725 19.1626 177.142 18.2216 176.376 17.544C175.611 16.8665 174.676 16.5277 173.572 16.5277C172.43 16.5277 171.464 16.8665 170.673 17.544C169.896 18.2216 169.3 19.1626 168.885 20.3672C168.484 21.5717 168.283 22.977 168.283 24.5831C168.283 26.1641 168.484 27.5568 168.885 28.7614C169.3 29.9659 169.896 30.907 170.673 31.5845C171.464 32.2621 172.43 32.6009 173.572 32.6009ZM198.011 39.5458C196.656 39.5458 195.495 39.069 194.529 38.1154C193.576 37.1618 193.105 36.0075 193.118 34.6523C193.105 33.3223 193.576 32.1868 194.529 31.2457C195.495 30.2921 196.656 29.8153 198.011 29.8153C199.291 29.8153 200.42 30.2921 201.399 31.2457C202.39 32.1868 202.892 33.3223 202.904 34.6523C202.892 35.5558 202.654 36.3776 202.189 37.1179C201.738 37.8582 201.142 38.4479 200.401 38.8871C199.674 39.3262 198.877 39.5458 198.011 39.5458Z" fill="black"/>
</svg>
