<svg width="41" height="22" viewBox="0 0 41 22" fill="none" xmlns="http://www.w3.org/2000/svg">
<path d="M0 22V0H9.38537C10.955 0 12.3096 0.284483 13.4491 0.853449C14.7607 1.50671 15.8035 2.44444 16.5776 3.66667C17.3516 4.86782 17.7387 6.1954 17.7387 7.64943C17.7387 9.10345 17.3516 10.4416 16.5776 11.6638C15.825 12.886 14.793 13.8238 13.4814 14.477C12.3633 15.046 10.998 15.3305 9.38537 15.3305H5.86989V22H0Z" fill="black"/>
<path d="M31.6469 9.16667L41 22H22.9388V0H41L31.6469 9.16667ZM30.8083 9.98851L24.1321 16.5316V20.8305H38.7101L30.8083 9.98851Z" fill="black"/>
</svg>
