<svg width="97" height="40" viewBox="0 0 97 40" fill="none" xmlns="http://www.w3.org/2000/svg">
<path d="M0.917259 39V0.454544H16.8398C19.7257 0.454544 22.2164 1.01918 24.3118 2.14844C26.4197 3.26515 28.0446 4.82729 29.1864 6.83487C30.3282 8.8299 30.8991 11.1512 30.8991 13.7986C30.8991 16.4587 30.3157 18.7862 29.1488 20.7812C27.9944 22.7637 26.3445 24.3008 24.1989 25.3924C22.0533 26.484 19.5062 27.0298 16.5575 27.0298H6.73295V19.6896H14.826C16.2313 19.6896 17.4045 19.445 18.3455 18.9556C19.2991 18.4663 20.0206 17.7824 20.5099 16.9041C20.9993 16.0133 21.244 14.9781 21.244 13.7986C21.244 12.6067 20.9993 11.5778 20.5099 10.712C20.0206 9.83369 19.2991 9.15613 18.3455 8.67933C17.3919 8.20253 16.2188 7.96413 14.826 7.96413H10.2337V39H0.917259ZM42.6058 39.4893C40.7614 39.4893 39.1239 39.1819 37.6935 38.5671C36.2757 37.9397 35.1527 36.9987 34.3246 35.744C33.509 34.4767 33.1012 32.8894 33.1012 30.9822C33.1012 29.3762 33.3835 28.0211 33.9482 26.9169C34.5128 25.8127 35.2907 24.9156 36.282 24.2255C37.2732 23.5354 38.415 23.0147 39.7074 22.6634C40.9998 22.2995 42.38 22.0548 43.848 21.9293C45.4917 21.7788 46.8155 21.6219 47.8192 21.4588C48.823 21.2831 49.5508 21.0385 50.0025 20.7248C50.4667 20.3986 50.6989 19.9406 50.6989 19.3509V19.2567C50.6989 18.2906 50.3664 17.544 49.7013 17.017C49.0363 16.4901 48.1392 16.2266 47.0099 16.2266C45.7929 16.2266 44.8142 16.4901 44.0739 17.017C43.3336 17.544 42.863 18.2718 42.6623 19.2003L34.174 18.8991C34.425 17.1425 35.0711 15.5741 36.1126 14.1939C37.1665 12.8011 38.6095 11.7095 40.4414 10.919C42.2859 10.116 44.5005 9.71449 47.0852 9.71449C48.9297 9.71449 50.6299 9.93407 52.1857 10.3732C53.7416 10.7998 55.0967 11.4272 56.2511 12.2553C57.4054 13.0709 58.2963 14.0747 58.9237 15.2667C59.5636 16.4587 59.8835 17.8201 59.8835 19.3509V39H51.2259V34.9723H51C50.4856 35.951 49.8268 36.7791 49.0238 37.4567C48.2333 38.1342 47.2985 38.6424 46.2195 38.9812C45.1529 39.32 43.9484 39.4893 42.6058 39.4893ZM45.4478 33.4666C46.439 33.4666 47.3299 33.2659 48.1204 32.8643C48.9234 32.4628 49.5633 31.9107 50.0401 31.2081C50.5169 30.4929 50.7553 29.6648 50.7553 28.7237V25.9759C50.4918 26.1139 50.1719 26.2393 49.7955 26.3523C49.4316 26.4652 49.0301 26.5719 48.5909 26.6722C48.1518 26.7726 47.7 26.8604 47.2358 26.9357C46.7715 27.011 46.3261 27.08 45.8995 27.1428C45.0337 27.2808 44.2934 27.4941 43.6786 27.7827C43.0763 28.0713 42.6121 28.4477 42.2859 28.9119C41.9722 29.3636 41.8153 29.9032 41.8153 30.5305C41.8153 31.4841 42.1541 32.2119 42.8317 32.7138C43.5218 33.2157 44.3938 33.4666 45.4478 33.4666ZM81.8288 10.0909V16.8665H63.5913V10.0909H81.8288ZM67.4119 3.16477H76.6154V29.9094C76.6154 30.4741 76.7032 30.9321 76.8789 31.2834C77.0671 31.6222 77.3369 31.8668 77.6882 32.0174C78.0395 32.1554 78.4599 32.2244 78.9492 32.2244C79.3005 32.2244 79.6707 32.1931 80.0597 32.1303C80.4612 32.055 80.7623 31.9923 80.9631 31.9421L82.3558 38.5859C81.9167 38.7114 81.2956 38.8683 80.4925 39.0565C79.7021 39.2447 78.7547 39.3639 77.6506 39.4141C75.4924 39.5144 73.6417 39.2635 72.0984 38.6612C70.5676 38.0464 69.3944 37.0928 68.5788 35.8004C67.7758 34.508 67.3868 32.8832 67.4119 30.9258V3.16477ZM91.7005 39.5458C90.3453 39.5458 89.1847 39.069 88.2186 38.1154C87.265 37.1618 86.7944 36.0075 86.807 34.6523C86.7944 33.3223 87.265 32.1868 88.2186 31.2457C89.1847 30.2921 90.3453 29.8153 91.7005 29.8153C92.9803 29.8153 94.1096 30.2921 95.0882 31.2457C96.0795 32.1868 96.5814 33.3223 96.5939 34.6523C96.5814 35.5558 96.343 36.3776 95.8787 37.1179C95.427 37.8582 94.831 38.4479 94.0907 38.8871C93.363 39.3262 92.5662 39.5458 91.7005 39.5458Z" fill="black"/>
</svg>
