<svg width="254" height="274" viewBox="0 0 254 274" fill="none" xmlns="http://www.w3.org/2000/svg">
<g filter="url(#filter0_f_5_890)">
<ellipse cx="123.5" cy="230.5" rx="92.5" ry="21.5" fill="#FFEBE7"/>
</g>
<path d="M124.701 247.402C188.049 247.402 239.402 196.049 239.402 132.701C239.402 69.3534 188.049 18 124.701 18C61.3534 18 10 69.3534 10 132.701C10 196.049 61.3534 247.402 124.701 247.402Z" fill="url(#paint0_linear_5_890)"/>
<path d="M181.577 33H66.0796C61.782 33 57.6605 34.7072 54.6217 37.746C51.5829 40.7848 49.8757 44.9063 49.8757 49.2038V180.815H50.0738V227.032C50.0736 228.816 50.5308 230.571 51.4017 232.129C52.2725 233.686 53.5281 234.995 55.0484 235.929C56.5687 236.864 58.3032 237.393 60.0862 237.466C61.8692 237.54 63.6413 237.155 65.2334 236.349L118.508 209.343C119.959 208.615 121.561 208.236 123.185 208.236C124.808 208.236 126.41 208.615 127.861 209.343L182.774 236.547C184.367 237.336 186.136 237.706 187.912 237.621C189.687 237.535 191.412 236.998 192.922 236.059C194.432 235.121 195.678 233.812 196.541 232.258C197.404 230.703 197.855 228.954 197.853 227.176L197.709 180.815V49.1588C197.697 44.8815 195.994 40.7824 192.972 37.7554C189.95 34.7284 185.854 33.019 181.577 33Z" fill="url(#paint1_linear_5_890)"/>
<path d="M254 75.6249C254.004 79.1277 252.734 82.5123 250.426 85.1476C248.118 87.783 244.931 89.4891 241.459 89.948C240.824 90.0289 240.185 90.0705 239.545 90.0725H191.487C190.445 90.0702 189.404 89.9843 188.375 89.8157C183.958 89.0535 179.978 86.6842 177.203 83.1639C174.428 79.6437 173.052 75.2212 173.342 70.7479C173.632 66.2745 175.566 62.0664 178.772 58.9335C181.979 55.8007 186.23 53.9645 190.709 53.7784C193.031 48.738 196.928 44.5891 201.814 41.9575C206.699 39.326 212.308 38.3545 217.794 39.1897C223.28 40.0248 228.346 42.6213 232.227 46.5875C236.109 50.5537 238.595 55.6744 239.311 61.1773H239.529C241.428 61.1742 243.31 61.5457 245.065 62.2703C246.821 62.995 248.416 64.0587 249.76 65.4006C251.104 66.7425 252.171 68.3362 252.898 70.0906C253.626 71.845 254 73.7256 254 75.6249Z" fill="url(#paint2_linear_5_890)"/>
<path d="M9.625 47.3281C9.625 50.2169 10.7726 52.9873 12.8152 55.03C14.8579 57.0726 17.6283 58.2202 20.5171 58.2202H56.6789C60.2418 58.2013 63.6566 56.7921 66.1959 54.2926C68.7351 51.7931 70.198 48.401 70.2731 44.8388C70.3482 41.2765 69.0294 37.8258 66.5977 35.2216C64.166 32.6174 60.8136 31.0655 57.2546 30.8966C55.4993 27.1158 52.565 24.0063 48.8921 22.0351C45.2193 20.0638 41.0061 19.3371 36.8851 19.964C32.7642 20.5909 28.9577 22.5377 26.0372 25.5119C23.1167 28.4862 21.2398 32.3276 20.6883 36.4593H20.5249C17.6388 36.4573 14.8699 37.6007 12.8262 39.6386C10.7825 41.6764 9.63118 44.442 9.625 47.3281Z" fill="url(#paint3_linear_5_890)"/>
<g filter="url(#filter1_f_5_890)">
<ellipse cx="128.612" cy="155.179" rx="52.1402" ry="11.1729" fill="#FF7C86" fill-opacity="0.39"/>
</g>
<path d="M128.113 58.8001L140.932 84.7712C141.312 85.5412 141.874 86.2073 142.569 86.7122C143.263 87.2172 144.07 87.5458 144.92 87.6699L173.574 91.8019C174.544 91.9505 175.454 92.3655 176.202 93.0007C176.951 93.6359 177.508 94.4664 177.812 95.3996C178.116 96.3328 178.156 97.3322 177.925 98.2864C177.695 99.2406 177.205 100.112 176.509 100.804L155.804 121.014C155.188 121.613 154.728 122.353 154.462 123.171C154.197 123.988 154.135 124.857 154.282 125.704L159.179 154.241C159.347 155.216 159.239 156.219 158.866 157.137C158.493 158.054 157.871 158.848 157.07 159.43C156.269 160.012 155.321 160.358 154.334 160.429C153.346 160.499 152.359 160.292 151.483 159.831L125.854 146.328C125.093 145.929 124.246 145.72 123.387 145.72C122.528 145.72 121.681 145.929 120.92 146.328L95.2914 159.831C94.4157 160.29 93.4293 160.495 92.4433 160.423C91.4573 160.351 90.5111 160.004 89.7116 159.423C88.912 158.842 88.2909 158.048 87.9184 157.132C87.5459 156.217 87.4369 155.215 87.6036 154.241L92.4917 125.704C92.6385 124.857 92.5767 123.988 92.3116 123.171C92.0465 122.353 91.5861 121.613 90.9703 121.014L70.2655 100.804C69.5692 100.112 69.0787 99.2406 68.8485 98.2864C68.6184 97.3322 68.6576 96.3328 68.9618 95.3996C69.266 94.4664 69.8233 93.6359 70.5716 93.0007C71.32 92.3655 72.2299 91.9505 73.2002 91.8019L101.854 87.6429C102.704 87.5188 103.511 87.1902 104.205 86.6852C104.9 86.1803 105.462 85.5142 105.842 84.7442L118.661 58.7731C119.107 57.9021 119.785 57.1716 120.621 56.6624C121.457 56.1532 122.417 55.8852 123.395 55.888C124.374 55.8908 125.332 56.1643 126.165 56.6783C126.998 57.1923 127.672 57.9266 128.113 58.8001Z" fill="url(#paint4_linear_5_890)"/>
<path d="M1.89262e-05 186.589C-0.00170582 190.077 1.26481 193.447 3.56358 196.071C5.86235 198.694 9.03657 200.393 12.4948 200.85C13.1238 200.937 13.7581 200.981 14.3931 200.982H62.2406C63.2831 200.98 64.3239 200.895 65.3526 200.725C69.7763 199.989 73.7687 197.635 76.5552 194.122C79.3417 190.608 80.7236 186.184 80.4328 181.709C80.1421 177.234 78.1993 173.027 74.9815 169.903C71.7637 166.779 67.5003 164.962 63.0186 164.805C60.7041 159.789 56.8222 155.661 51.9577 153.043C47.0932 150.425 41.5097 149.459 36.0484 150.29C30.5871 151.122 25.544 153.705 21.6788 157.652C17.8136 161.599 15.3358 166.695 14.6188 172.172H14.3931C12.501 172.172 10.6275 172.545 8.87974 173.27C7.13196 173.995 5.54424 175.057 4.20741 176.396C2.87058 177.735 1.81087 179.325 1.08892 181.074C0.366976 182.823 -0.00304934 184.697 1.89262e-05 186.589Z" fill="url(#paint5_linear_5_890)"/>
<path d="M215.523 107.046C215.208 105.811 216.348 104.699 217.575 105.043L225.855 107.37C227.082 107.715 227.475 109.258 226.563 110.148L220.408 116.156C219.496 117.046 217.963 116.615 217.648 115.38L215.523 107.046Z" fill="#FFBEBD"/>
<path d="M24.3421 107.046C24.0273 105.811 25.1672 104.699 26.3938 105.043L34.674 107.37C35.9007 107.715 36.2942 109.258 35.3823 110.148L29.2271 116.156C28.3153 117.046 26.7819 116.615 26.4671 115.38L24.3421 107.046Z" fill="#FFBEBD"/>
<path d="M88.6108 7.99867C89.1001 5.97173 91.9832 5.97173 92.4725 7.99866L94.1193 14.8206C94.2941 15.5449 94.8597 16.1105 95.584 16.2853L102.406 17.9321C104.433 18.4214 104.433 21.3045 102.406 21.7938L95.584 23.4406C94.8597 23.6154 94.2941 24.181 94.1193 24.9053L92.4725 31.7272C91.9832 33.7542 89.1001 33.7542 88.6108 31.7272L86.964 24.9053C86.7892 24.181 86.2236 23.6154 85.4993 23.4406L78.6774 21.7938C76.6504 21.3045 76.6504 18.4214 78.6774 17.9321L85.4993 16.2853C86.2236 16.1105 86.7892 15.5449 86.964 14.8206L88.6108 7.99867Z" fill="#FFBEBD"/>
<path d="M133.164 226.768C133.164 229.282 131.126 231.32 128.612 231.32C126.098 231.32 124.061 229.282 124.061 226.768C124.061 224.254 126.098 222.217 128.612 222.217C131.126 222.217 133.164 224.254 133.164 226.768Z" stroke="#FFBEBD" stroke-width="2.48287"/>
<path d="M214.41 189.248C214.899 187.221 217.782 187.221 218.271 189.248L219.918 196.07C220.093 196.794 220.658 197.36 221.383 197.535L228.205 199.182C230.232 199.671 230.232 202.554 228.205 203.043L221.383 204.69C220.658 204.865 220.093 205.43 219.918 206.155L218.271 212.977C217.782 215.004 214.899 215.004 214.41 212.977L212.763 206.155C212.588 205.43 212.022 204.865 211.298 204.69L204.476 203.043C202.449 202.554 202.449 199.671 204.476 199.182L211.298 197.535C212.022 197.36 212.588 196.794 212.763 196.07L214.41 189.248Z" fill="#FFBEBD"/>
<circle cx="222.134" cy="160.559" r="4.55192" stroke="#FC9999" stroke-width="2.48287"/>
<defs>
<filter id="filter0_f_5_890" x="9.22701" y="187.227" width="228.546" height="86.546" filterUnits="userSpaceOnUse" color-interpolation-filters="sRGB">
<feFlood flood-opacity="0" result="BackgroundImageFix"/>
<feBlend mode="normal" in="SourceGraphic" in2="BackgroundImageFix" result="shape"/>
<feGaussianBlur stdDeviation="10.8865" result="effect1_foregroundBlur_5_890"/>
</filter>
<filter id="filter1_f_5_890" x="55.7816" y="123.316" width="145.662" height="63.7269" filterUnits="userSpaceOnUse" color-interpolation-filters="sRGB">
<feFlood flood-opacity="0" result="BackgroundImageFix"/>
<feBlend mode="normal" in="SourceGraphic" in2="BackgroundImageFix" result="shape"/>
<feGaussianBlur stdDeviation="10.3453" result="effect1_foregroundBlur_5_890"/>
</filter>
<linearGradient id="paint0_linear_5_890" x1="123.817" y1="-19.3495" x2="126.167" y2="383.463" gradientUnits="userSpaceOnUse">
<stop stop-color="#FFE1E1" stop-opacity="0"/>
<stop offset="1" stop-color="#FFE1E0"/>
</linearGradient>
<linearGradient id="paint1_linear_5_890" x1="233.854" y1="248.172" x2="56.4472" y2="88.769" gradientUnits="userSpaceOnUse">
<stop stop-color="#FF9999"/>
<stop offset="1" stop-color="#FFE7DA"/>
</linearGradient>
<linearGradient id="paint2_linear_5_890" x1="238.686" y1="112.143" x2="198.547" y2="38.8983" gradientUnits="userSpaceOnUse">
<stop stop-color="#FFBEBD"/>
<stop offset="1" stop-color="#FFF6F5"/>
</linearGradient>
<linearGradient id="paint3_linear_5_890" x1="58.7663" y1="74.8138" x2="28.5819" y2="19.7533" gradientUnits="userSpaceOnUse">
<stop stop-color="#FFBEBD"/>
<stop offset="1" stop-color="#FFF6F5"/>
</linearGradient>
<linearGradient id="paint4_linear_5_890" x1="77.5251" y1="83.9386" x2="273.375" y2="160.346" gradientUnits="userSpaceOnUse">
<stop stop-color="#FFDEAC"/>
<stop offset="0.70369" stop-color="#FF426F"/>
</linearGradient>
<linearGradient id="paint5_linear_5_890" x1="65.1999" y1="222.969" x2="25.2319" y2="149.967" gradientUnits="userSpaceOnUse">
<stop stop-color="#FFBEBD"/>
<stop offset="1" stop-color="#FFF6F5"/>
</linearGradient>
</defs>
</svg>
